<?xml version="1.0" standalone="no"?>
<!DOCTYPE svg PUBLIC "-//W3C//DTD SVG 20010904//EN"
 "http://www.w3.org/TR/2001/REC-SVG-20010904/DTD/svg10.dtd">
<svg version="1.0" xmlns="http://www.w3.org/2000/svg"
 width="728.000000pt" height="728.000000pt" viewBox="0 0 728.000000 728.000000"
 preserveAspectRatio="xMidYMid meet">
<metadata>
Created by potrace 1.14, written by Peter Selinger 2001-2017
</metadata>
<g transform="translate(0.000000,728.000000) scale(0.100000,-0.100000)"
fill="#000000" stroke="none">
<path d="M2138 7271 c-4 -9 -255 -123 -378 -171 -88 -35 -453 -158 -492 -165
-9 -2 -27 -9 -40 -16 -13 -7 -23 -11 -23 -9 0 2 -70 -20 -155 -47 -85 -28
-189 -61 -230 -73 -41 -12 -103 -31 -137 -42 l-62 -19 48 -62 c74 -94 124
-184 196 -352 25 -60 53 -123 60 -140 44 -101 171 -465 360 -1032 119 -356
218 -655 220 -663 2 -8 4 -15 5 -15 1 0 3 -7 5 -15 2 -8 12 -40 23 -70 10 -30
20 -59 22 -65 3 -13 2 -9 59 -185 27 -85 63 -198 80 -250 16 -52 39 -126 51
-165 12 -38 24 -80 26 -93 3 -13 11 -42 19 -65 12 -38 32 -109 40 -147 2 -8
11 -40 19 -72 8 -31 17 -67 20 -80 2 -12 12 -57 21 -98 15 -68 20 -93 30 -155
1 -11 8 -47 13 -80 6 -33 14 -78 17 -100 3 -22 8 -51 10 -65 2 -14 7 -47 10
-75 3 -27 8 -63 10 -80 3 -16 7 -41 9 -55 2 -14 7 -36 10 -50 3 -14 8 -41 11
-60 5 -35 10 -67 20 -117 3 -16 8 -39 11 -53 3 -14 7 -32 9 -40 2 -8 7 -28 10
-45 8 -50 20 -100 111 -495 8 -36 19 -85 25 -110 6 -25 14 -61 19 -80 9 -31
55 -218 65 -261 17 -74 66 -227 113 -354 28 -74 169 -380 192 -415 5 -8 28
-49 50 -90 74 -139 210 -380 214 -380 2 0 32 9 66 20 35 11 74 22 86 24 13 3
28 7 34 11 5 3 18 8 29 10 50 10 207 59 218 69 6 6 40 67 74 136 35 69 68 128
74 132 5 4 6 8 2 8 -5 0 0 15 11 33 11 17 41 73 67 122 26 50 51 95 55 100 4
6 24 42 44 80 20 39 41 77 46 85 8 12 101 179 265 475 47 85 150 275 203 375
31 58 60 108 66 112 6 4 7 8 3 8 -5 0 0 15 11 33 11 17 37 66 58 107 21 41 43
78 49 82 5 4 6 8 1 8 -5 0 -4 6 1 13 6 6 33 55 60 107 28 52 76 145 108 205
106 199 295 580 295 593 0 6 5 12 10 12 6 0 10 4 10 10 0 5 21 56 46 112 25
57 55 123 66 148 11 25 26 59 34 75 7 17 32 77 55 135 22 58 47 119 54 135 8
17 48 120 90 230 42 110 85 219 96 242 10 24 19 47 19 52 0 5 13 40 29 77 35
85 43 106 47 119 17 63 153 349 231 485 155 272 273 492 278 520 2 13 52 103
100 180 28 47 110 186 180 310 70 124 161 283 202 353 40 71 73 132 73 138 0
5 3 9 8 9 4 0 13 15 21 33 8 17 17 34 20 37 9 7 91 179 91 191 0 5 5 9 12 9 6
0 9 3 6 6 -4 3 6 33 22 67 27 60 92 236 87 238 -1 0 -36 2 -77 4 -84 4 -153
11 -190 21 -14 3 -41 9 -60 14 -60 14 -72 17 -200 49 -69 17 -141 35 -160 40
-107 30 -432 102 -515 116 -209 33 -293 52 -365 81 -34 14 -68 23 -74 21 -7
-3 -12 -39 -14 -95 -1 -49 -5 -100 -8 -113 -3 -13 -7 -35 -10 -49 -2 -14 -11
-54 -19 -90 -8 -36 -17 -76 -19 -90 -3 -14 -5 -25 -6 -25 -1 0 -3 -9 -5 -20
-1 -11 -5 -33 -9 -50 -3 -16 -8 -43 -11 -60 -9 -47 -24 -128 -28 -150 -7 -30
-21 -109 -23 -120 -3 -28 -18 -98 -36 -165 -11 -41 -20 -79 -22 -85 -1 -5 -5
-16 -9 -22 -5 -7 -6 -13 -3 -13 3 0 -2 -19 -10 -42 -9 -24 -17 -50 -19 -58 -2
-9 -16 -56 -31 -105 -15 -50 -29 -94 -30 -100 -2 -5 -26 -80 -54 -165 -41
-125 -138 -442 -155 -510 -3 -13 -39 -140 -135 -475 -17 -60 -34 -117 -37
-125 -8 -19 -7 -16 -22 -70 -6 -25 -15 -52 -18 -60 -3 -8 -7 -20 -8 -26 -7
-30 -206 -621 -215 -636 -6 -10 -10 -23 -10 -29 0 -6 -6 -25 -14 -42 -8 -18
-24 -59 -35 -92 -12 -33 -26 -69 -31 -80 -5 -11 -25 -58 -43 -105 -55 -138
-118 -284 -183 -425 -15 -33 -28 -62 -29 -65 -3 -12 -39 -89 -135 -295 -97
-207 -130 -268 -130 -237 0 7 -10 34 -21 60 -51 112 -98 272 -114 387 -8 59
-10 66 -25 165 -7 41 -14 82 -18 90 -3 8 -4 19 -3 23 1 8 -22 146 -39 227 -5
25 -12 56 -15 70 -2 14 -9 45 -15 70 -5 25 -11 54 -14 65 -2 11 -9 38 -14 60
-6 22 -13 51 -16 65 -3 14 -15 61 -26 105 -11 44 -23 91 -26 105 -2 14 -9 39
-15 56 -5 17 -11 40 -13 50 -2 11 -9 39 -16 64 -7 25 -13 52 -15 60 -2 8 -10
42 -19 75 -9 33 -19 71 -22 83 -2 13 -11 48 -19 78 -23 82 -43 158 -60 217 -8
28 -17 63 -21 77 -4 14 -31 111 -61 215 -30 105 -56 197 -58 205 -2 8 -12 42
-21 75 -9 33 -18 68 -20 78 -2 10 -5 26 -8 35 -6 20 -8 28 -41 222 -14 80 -28
157 -30 170 -3 14 -7 39 -10 55 -2 17 -6 41 -9 55 -2 14 -8 48 -12 75 -4 28
-8 55 -9 60 -1 6 -6 42 -10 80 -4 39 -9 86 -11 105 -3 19 -7 53 -9 75 -7 83
-16 161 -20 185 -3 14 -7 45 -10 70 -3 25 -8 56 -10 70 -3 14 -8 43 -11 65 -4
22 -15 74 -26 115 -26 98 -24 92 -33 115 -20 52 -69 181 -70 185 -2 13 -66
129 -89 163 -14 21 -26 41 -26 46 0 4 -9 16 -20 26 -11 10 -20 22 -20 26 0 9
-19 33 -72 92 -26 30 -54 42 -60 28z m3257 -341 c138 -23 184 -32 235 -45 3
-1 23 -5 45 -9 54 -11 353 -85 390 -97 17 -5 82 -23 145 -39 63 -17 120 -32
127 -35 21 -7 -118 -316 -216 -480 -54 -90 -141 -248 -141 -255 0 -5 -3 -10
-7 -12 -5 -1 -21 -28 -37 -58 -16 -30 -48 -86 -71 -125 -23 -38 -45 -77 -48
-85 -4 -8 -11 -22 -17 -30 -69 -107 -189 -320 -258 -460 -47 -96 -90 -178 -95
-181 -5 -3 -8 -9 -7 -13 1 -4 -35 -71 -79 -150 -45 -78 -81 -147 -81 -153 0
-6 -4 -13 -9 -15 -12 -4 -119 -230 -165 -348 -21 -52 -42 -104 -46 -115 -12
-25 -100 -257 -104 -270 -2 -5 -7 -19 -11 -30 -30 -75 -85 -221 -85 -228 0 -4
-8 -26 -19 -50 -10 -23 -29 -69 -41 -102 -13 -33 -29 -76 -37 -95 -8 -19 -19
-44 -23 -55 -12 -30 -48 -120 -62 -152 -6 -15 -12 -30 -13 -33 -4 -11 -25 -60
-59 -135 -20 -44 -49 -107 -64 -140 -35 -79 -295 -598 -375 -750 -74 -140
-229 -438 -266 -510 -14 -27 -28 -52 -31 -55 -3 -3 -12 -18 -20 -35 -8 -16
-31 -59 -51 -95 -20 -36 -53 -96 -74 -135 -21 -38 -103 -185 -183 -325 -80
-140 -159 -280 -175 -310 -16 -30 -33 -59 -37 -65 -4 -5 -22 -37 -40 -70 -18
-33 -56 -100 -83 -149 l-50 -89 -20 39 c-11 21 -23 41 -26 44 -19 16 -272 524
-291 585 -7 22 -15 45 -19 50 -3 6 -6 12 -7 15 0 3 -4 12 -7 20 -8 20 -58 170
-63 190 -2 8 -15 58 -30 110 -60 219 -213 898 -240 1065 -3 17 -6 39 -8 50 -2
11 -6 34 -10 50 -3 17 -8 48 -11 70 -2 22 -7 51 -10 65 -2 14 -7 45 -10 69 -3
25 -7 54 -10 65 -2 12 -7 39 -10 61 -4 22 -8 52 -11 67 -2 16 -6 40 -9 55 -4
27 -18 100 -30 153 -3 14 -7 36 -10 50 -2 14 -12 52 -21 85 -9 33 -17 65 -18
70 -2 6 -6 24 -10 40 -23 88 -118 404 -136 450 -4 11 -27 81 -50 155 -23 74
-62 191 -86 260 -108 316 -298 892 -318 965 -2 6 -6 17 -9 25 -5 14 -30 90
-32 100 -1 3 -5 19 -9 35 -4 17 -12 39 -16 50 -5 11 -23 65 -40 120 -17 55
-34 107 -37 115 -3 8 -7 20 -9 27 -3 14 -23 82 -31 103 -8 21 -132 383 -136
395 -17 55 -41 122 -47 130 -5 6 -8 13 -9 18 0 8 -36 110 -50 142 -65 144 -65
146 -38 151 7 2 26 8 42 14 17 6 129 42 250 82 121 39 269 91 330 115 177 72
157 74 209 -15 25 -42 47 -84 50 -92 3 -8 11 -28 17 -45 7 -16 13 -32 13 -35
1 -3 14 -36 29 -75 28 -73 65 -208 72 -260 2 -16 6 -43 9 -60 19 -103 29 -176
41 -295 6 -66 13 -131 20 -185 2 -16 7 -55 10 -85 8 -62 10 -79 19 -132 3 -21
8 -55 11 -75 3 -21 8 -49 10 -63 5 -23 9 -55 20 -140 3 -19 7 -46 10 -60 11
-58 16 -87 20 -119 3 -18 7 -36 10 -40 2 -4 7 -21 9 -37 3 -16 8 -39 11 -51 3
-13 7 -32 9 -42 3 -11 10 -30 17 -43 7 -13 12 -25 11 -28 -2 -8 17 -77 43
-155 19 -58 41 -130 51 -167 1 -5 3 -10 4 -13 1 -3 3 -8 4 -12 1 -5 10 -34 19
-65 10 -32 18 -60 18 -63 0 -3 7 -24 15 -47 9 -24 17 -50 19 -58 2 -8 10 -42
19 -75 9 -33 33 -121 52 -195 19 -74 40 -151 46 -170 6 -19 12 -44 13 -55 1
-11 5 -27 8 -35 5 -13 14 -49 22 -85 2 -5 7 -28 13 -50 6 -22 13 -51 16 -65 3
-14 12 -52 20 -86 8 -34 17 -72 20 -85 2 -13 12 -58 21 -99 17 -78 18 -83 30
-165 4 -27 9 -52 10 -55 2 -3 7 -33 10 -65 4 -33 9 -69 11 -80 3 -11 11 -69
20 -130 37 -269 70 -398 147 -580 28 -67 57 -149 63 -180 7 -39 36 -150 40
-157 4 -6 29 2 109 37 17 7 71 30 120 50 50 21 96 44 102 53 7 9 22 39 32 68
11 28 82 188 159 355 158 345 165 359 222 489 23 52 53 120 67 150 48 105 150
356 206 505 69 186 157 436 157 446 0 4 5 20 12 36 6 15 12 33 13 38 2 6 24
73 50 150 26 77 49 147 50 157 2 10 7 23 10 28 3 5 8 20 10 32 4 18 19 69 41
138 3 8 5 15 5 15 -1 0 30 110 99 350 82 290 116 401 230 745 60 179 113 345
120 370 6 25 14 52 17 60 7 17 6 12 27 103 9 37 18 82 21 100 3 17 10 52 15
77 5 25 12 61 14 80 3 19 10 58 15 85 6 28 13 64 15 80 3 17 10 48 15 70 5 22
12 56 15 76 3 20 10 49 16 65 6 16 11 30 11 32 -5 16 4 22 27 17 15 -3 81 -14
147 -25z"/>
</g>
</svg>
