<?xml version="1.0" encoding="UTF-8" standalone="no"?>
<!-- Created with Inkscape (http://www.inkscape.org/) -->

<svg
   width="80.045753mm"
   height="96.415764mm"
   viewBox="0 0 80.045754 96.415764"
   version="1.1"
   id="svg8"
   sodipodi:docname="logo.svg"
   inkscape:version="1.1 (ce6663b3b7, 2021-05-25)"
   xmlns:inkscape="http://www.inkscape.org/namespaces/inkscape"
   xmlns:sodipodi="http://sodipodi.sourceforge.net/DTD/sodipodi-0.dtd"
   xmlns="http://www.w3.org/2000/svg"
   xmlns:svg="http://www.w3.org/2000/svg"
   xmlns:rdf="http://www.w3.org/1999/02/22-rdf-syntax-ns#"
   xmlns:cc="http://creativecommons.org/ns#"
   xmlns:dc="http://purl.org/dc/elements/1.1/">
  <defs
     id="defs2" />
  <sodipodi:namedview
     id="base"
     pagecolor="#ffffff"
     bordercolor="#666666"
     borderopacity="1.0"
     inkscape:pageopacity="0.0"
     inkscape:pageshadow="2"
     inkscape:zoom="0.70710678"
     inkscape:cx="-7.7781746"
     inkscape:cy="195.86858"
     inkscape:document-units="mm"
     inkscape:current-layer="layer1"
     showgrid="false"
     inkscape:window-width="1280"
     inkscape:window-height="656"
     inkscape:window-x="0"
     inkscape:window-y="27"
     inkscape:window-maximized="1"
     fit-margin-top="0"
     fit-margin-left="0"
     fit-margin-right="0"
     fit-margin-bottom="0"
     inkscape:pagecheckerboard="0" />
  <metadata
     id="metadata5">
    <rdf:RDF>
      <cc:Work
         rdf:about="">
        <dc:format>image/svg+xml</dc:format>
        <dc:type
           rdf:resource="http://purl.org/dc/dcmitype/StillImage" />
        <dc:title />
      </cc:Work>
    </rdf:RDF>
  </metadata>
  <g
     inkscape:label="Layer 1"
     inkscape:groupmode="layer"
     id="layer1"
     transform="translate(-104.62053,-108.85398)">
    <path
       style="fill:#2e2c24;fill-opacity:1;stroke:#2e2c24;stroke-width:1.25;stroke-miterlimit:4;stroke-dasharray:none;stroke-opacity:1"
       id="path3725-8"
       d="m 110.34241,115.06588 c 0.12894,0.1899 0.27204,0.37633 0.38687,0.5697 0.97274,1.63809 1.64194,3.34984 2.28568,5.04284 0.90819,2.3884 1.4088,3.94205 2.23978,6.38811 1.80492,5.48099 3.47176,10.97705 5.30068,16.45543 1.82988,5.35762 0.9363,2.70999 2.68229,7.94281 1.3203,4.02355 2.63241,8.06129 3.51517,12.12572 0.24258,1.11702 0.5792,3.23239 0.76916,4.38009 0.61987,4.76668 1.66965,9.51475 2.78097,14.25624 0.85572,3.62075 1.70967,7.26473 3.23016,10.81813 0.25473,0.5953 0.56006,1.18222 0.84011,1.77333 0.28819,0.56798 0.57981,1.13535 0.86459,1.70398 0.27235,0.54383 0.52101,1.0921 0.80682,1.63334 0.8957,1.6962 1.96553,3.35995 2.92424,5.04321 0,0 -4.53429,1.32978 -4.53429,1.32978 v 0 c -1.53755,-2.80314 -3.18358,-5.58279 -4.48307,-8.43298 -0.27831,-0.59804 -0.58118,-1.19212 -0.83492,-1.79411 -1.50659,-3.57419 -2.28399,-7.23836 -3.14301,-10.87634 -1.08996,-4.74137 -2.2594,-9.48249 -2.87028,-14.24872 -0.16743,-1.12675 -0.47767,-3.2895 -0.68799,-4.38544 -0.78287,-4.08008 -1.98126,-8.13814 -3.25599,-12.17709 -2.63267,-8.12975 -5.30483,-16.25603 -8.05581,-24.37241 -0.92152,-2.50422 -1.39234,-3.89188 -2.42669,-6.31881 -0.70275,-1.64886 -1.45044,-3.32758 -2.54516,-4.89982 -0.13196,-0.18949 -0.29624,-0.36936 -0.44436,-0.55405 0,0 4.65505,-1.40294 4.65505,-1.40294 z"
       inkscape:connector-curvature="0" />
    <path
       style="fill:#2e2c24;fill-opacity:1;stroke:#2e2c24;stroke-width:1.24999988;stroke-miterlimit:4;stroke-dasharray:none;stroke-opacity:1"
       id="path3727-2"
       d="m 124.92052,109.61505 c 1.19373,1.33863 2.0851,2.80709 2.85853,4.31634 0.62124,1.53754 1.25194,3.08286 1.60881,4.67456 0.20814,0.92833 0.40328,2.32377 0.54314,3.2385 0.2791,1.85577 0.39162,3.7234 0.62799,5.5822 0.19763,1.55414 0.46573,3.10435 0.73981,4.65115 0.34409,2.04495 0.66176,4.09332 1.19837,6.11394 0.90426,3.21684 1.86437,6.42291 2.71905,9.64823 1.09715,4.43969 2.34595,8.85433 3.29988,13.31504 0.55406,2.72633 0.9435,5.4697 1.39076,8.20711 0.29438,1.87054 1.04569,3.65578 1.81112,5.43247 0.48622,1.05809 0.66135,2.17507 0.98514,3.2645 0,0 -3.16938,1.33211 -3.16938,1.33211 v 0 c -0.30741,-1.08716 -0.46874,-2.1991 -0.92727,-3.25848 -0.74785,-1.80305 -1.47874,-3.61613 -1.78128,-5.50514 -0.44377,-2.74587 -0.78227,-5.50214 -1.28044,-8.24298 -0.86918,-4.47175 -2.08882,-8.89052 -3.25308,-13.31958 -0.88807,-3.20691 -1.91996,-6.3846 -2.89334,-9.57583 -0.55142,-2.03244 -0.85978,-4.09375 -1.1498,-6.15772 -0.24586,-1.56106 -0.48682,-3.12387 -0.67867,-4.68965 -0.49215,-4.01656 0.0777,0.27874 -0.39493,-3.71996 -0.0728,-0.61559 -0.16449,-1.2297 -0.24674,-1.84455 -0.1503,-0.88195 -0.37472,-2.29519 -0.58725,-3.1942 -0.37138,-1.57089 -0.99624,-3.09835 -1.61757,-4.61695 -0.77957,-1.48346 -1.659,-2.93985 -2.92691,-4.21329 0,0 3.12406,-1.43782 3.12406,-1.43782 z"
       inkscape:connector-curvature="0" />
    <path
       style="fill:#2e2c24;fill-opacity:1;stroke:#2e2c24;stroke-width:1.25;stroke-miterlimit:4;stroke-dasharray:none;stroke-opacity:1"
       d="m 163.31302,112.3188 c -0.0381,0.17903 -0.0752,0.35843 -0.119,0.53521 -0.46136,2.00616 -0.87178,4.03169 -1.23807,6.07052 -0.37729,2.14937 -0.77754,4.29592 -1.41155,6.34813 -0.7859,2.74576 -1.69738,5.42469 -2.565,8.12837 -1.57452,5.20627 -2.93289,10.51837 -4.60325,15.67686 -0.958,2.91444 -1.91585,5.83344 -2.96906,8.69334 -0.83222,2.25976 -1.45314,3.79378 -2.3947,5.98866 -0.43334,1.01017 -0.8853,2.00644 -1.32799,3.00978 -1.42901,3.14377 -1.19847,2.66437 -2.63375,5.71619 -0.77104,1.63948 -1.56615,3.26324 -2.31908,4.91766 l 1.37188,0.29766 c 0.0752,-0.20006 0.14882,-0.40104 0.23006,-0.59704 0.79898,-1.92753 1.69523,-3.79172 2.55707,-5.67211 1.50109,-3.27521 1.05902,-2.30912 2.57875,-5.68871 0.44072,-1.00326 0.89027,-1.99953 1.32216,-3.00921 0.94861,-2.2176 1.56059,-3.72784 2.40159,-6.00926 1.05744,-2.86856 2.02098,-5.79514 2.98386,-8.71796 1.47603,-4.43433 2.62075,-9.03396 3.97813,-13.52742 0.22218,-0.73549 0.46018,-1.46263 0.69017,-2.19409 0.89733,-2.73516 1.87291,-5.42488 2.68294,-8.20621 0.63869,-2.05214 1.00564,-4.21626 1.37505,-6.36875 0.32387,-1.81472 0.70564,-3.61038 1.1249,-5.39162 z"
       id="path3729-6"
       inkscape:connector-curvature="0" />
    <path
       style="fill:#2e2c24;fill-opacity:1;stroke:#2e2c24;stroke-width:1.25;stroke-miterlimit:4;stroke-dasharray:none;stroke-opacity:1"
       d="m 181.61062,114.86565 c -0.0212,0.0676 -0.0387,0.13645 -0.0617,0.20339 -0.34675,0.99642 -0.68555,1.99588 -1.07842,2.97116 -0.5328,1.25819 -1.09424,2.50517 -1.73515,3.69899 -0.79707,1.46477 -1.66268,2.8786 -2.46886,4.33715 -0.94495,1.72827 -1.92508,3.43152 -2.91737,5.12603 -0.84666,1.49611 -1.80732,2.91003 -2.57374,4.45977 -0.70495,1.45545 -1.37155,2.93437 -2.17,4.33058 -1.31207,2.30354 -2.64554,4.59715 -3.67955,7.08021 -2.17653,5.33732 -4.04115,10.82631 -6.2923,16.12674 -0.52979,1.18258 -1.04384,2.37356 -1.58915,3.54725 -1.94282,4.18141 -4.07943,8.23986 -6.20902,12.3035 -0.82084,1.56635 -1.63195,3.13949 -2.46569,4.69725 -0.86447,1.61519 -1.75269,3.21383 -2.62907,4.82093 -2.82876,4.95494 -5.66245,9.90929 -8.36901,14.9498 l 2.15471,-0.52167 c 2.61702,-5.27797 5.51996,-10.3739 8.37322,-15.49346 0.87066,-1.60585 1.74981,-3.20585 2.61167,-4.81763 0.83642,-1.56414 1.65441,-3.14079 2.48257,-4.71043 2.15858,-4.0913 4.3441,-8.16468 6.32393,-12.37004 0.55606,-1.18121 1.07988,-2.38135 1.61971,-3.57199 2.29019,-5.34372 4.20735,-10.87202 6.4715,-16.22842 1.08444,-2.49194 2.48082,-4.77826 3.8166,-7.10275 0.79634,-1.41328 1.48067,-2.89613 2.18739,-4.36576 0.10717,-0.21875 0.20567,-0.44286 0.32098,-0.65636 0.28203,-0.52211 0.50216,-0.81669 0.8154,-1.32148 0.49588,-0.79916 0.95729,-1.62244 1.41628,-2.44841 1.00109,-1.69004 1.97696,-3.39789 2.91843,-5.13039 0.82733,-1.45261 1.69286,-2.87477 2.48994,-4.34874 0.62394,-1.22061 1.21662,-2.46614 1.74569,-3.7424 0.23732,-0.60078 0.45428,-1.21104 0.66728,-1.82282 z"
       id="path3731-4"
       inkscape:connector-curvature="0" />
    <path
       style="fill:#2e2c24;fill-opacity:1;stroke:#2e2c24;stroke-width:3;stroke-miterlimit:4;stroke-dasharray:none;stroke-opacity:1"
       id="path4626"
       d="m 107.52866,116.95807 c 0.46828,-0.12297 0.91778,-0.30081 1.36831,-0.47431 1.26653,-0.46071 2.54332,-0.89318 3.82406,-1.31405 1.76858,-0.57084 3.54511,-1.11786 5.30821,-1.7049 1.03784,-0.34202 2.05558,-0.73839 3.06339,-1.15715 0.58024,-0.26613 1.17585,-0.49532 1.77543,-0.71476 0.34041,-0.11999 0.69007,-0.20645 1.0458,-0.26779 0,0 -0.80099,0.59354 -0.80099,0.59354 v 0 c -0.34981,0.0647 -0.69338,0.15533 -1.02787,0.2759 -0.59365,0.21458 -1.179,0.44938 -1.75577,0.70494 -0.9973,0.40992 -2.00573,0.794 -3.03331,1.12521 -1.76233,0.5761 -3.53528,1.12021 -5.29748,1.69684 -1.2988,0.43346 -2.59451,0.87646 -3.87535,1.35919 -0.46102,0.17807 -0.922,0.36106 -1.40368,0.47921 0,0 0.80925,-0.60187 0.80925,-0.60187 z"
       inkscape:connector-curvature="0" />
    <path
       style="fill:#2e2c24;fill-opacity:1;stroke:#2e2c24;stroke-width:8.31496048;stroke-miterlimit:4;stroke-dasharray:none;stroke-opacity:1"
       d="m 223.73828,8.6894531 -0.084,1.7695309 c 0.51246,0.157607 0.36794,0.115773 1.00781,0.294922 0.85644,0.240114 1.32908,0.378691 2.24414,0.570313 1.12301,0.23486 2.79789,0.506965 3.88477,0.691406 4.58245,0.752088 9.18576,1.360911 13.75,2.21875 3.66848,0.689537 5.66188,1.149659 9.32031,1.943359 7.69682,1.743005 15.33951,3.708675 22.94336,5.804688 0.85954,0.2352 1.7211,0.470055 2.58008,0.707031 2.02919,0.560164 2.26623,0.648204 4.22656,1.144531 1.5733,0.398438 3.158,0.746224 4.74219,1.09961 1.59964,0.366727 3.22042,0.645006 4.85351,0.822265 0.84837,0.08102 0.97609,0.09747 1.23047,0.125 v -1.679687 c -0.4034,-0.03377 -0.80618,-0.06558 -1.20898,-0.105469 -1.62758,-0.16063 -3.24203,-0.431266 -4.8379,-0.78125 -1.58275,-0.329688 -3.16516,-0.659344 -4.73828,-1.03125 -2.05273,-0.485367 -2.08984,-0.516914 -4.22656,-1.070312 -0.85931,-0.222539 -1.72031,-0.441763 -2.58008,-0.66211 -7.62141,-1.981908 -15.27288,-3.854878 -22.95508,-5.597656 -3.32545,-0.729524 -5.98954,-1.328894 -9.32421,-1.996094 -3.69967,-0.740296 -7.42077,-1.347615 -11.13672,-2 -0.87088,-0.152428 -1.73929,-0.315428 -2.60938,-0.472656 -2.38979,-0.466885 -4.81533,-0.8865124 -7.08203,-1.7949219 z"
       id="path2212"
       transform="matrix(0.26458333,0,0,0.26458333,104.62053,108.85398)"
       inkscape:connector-curvature="0" />
  </g>
</svg>
